<?xml version="1.0" standalone="no"?><!DOCTYPE svg PUBLIC "-//W3C//DTD SVG 1.1//EN" "http://www.w3.org/Graphics/SVG/1.1/DTD/svg11.dtd"><svg xmlns="http://www.w3.org/2000/svg" version="1.1" width="826.684" height="680.017" xmlns:xlink="http://www.w3.org/1999/xlink" xlink="http://www.w3.org/1999/xlink" style="position:relative;overflow:hidden;" viewBox="98.583 23.323 826.684 680.017"><defs><filter id="4333b48a-c5e7-48b0-8d51-bcb4841c856a" x="-0.5" y="-0.5" width="2" height="2"><feMerge><feMergeNode in="SourceGraphic"/></feMerge></filter><style type="text/css">@import url(https://fonts.googleapis.com/css?family=Francois+One::latin);</style></defs><g><g width="500" height="179.167" transform="scale(1,1) translate(278.333,40.167)"><g stroke="#909090" opacity="1" stroke-width="1.3333333333333333" stroke-dasharray="none" width="500" height="179.167" transform="scale(1,1) translate(0,0)" fill="#FDF0C9" fill-opacity="1" stroke-opacity="1"><rect width="500" height="179.167"/></g><g width="498.66666947735916" height="177.83333492279044" transform="scale(1,1) translate(0.667,0.667)"><text width="498.66666947735916" height="33.33332824707031" transform="scale(1,1) translate(0,72.25000333786006)" xml:space="preserve"><tspan xml:space="preserve" text-rendering="optimizeSpeed" style="font-family: Francois One, Helvetica Neue, Helvetica, sans-serif;" font-size="22.22222222222222" font-weight="normal" font-style="normal" fill="#333333" opacity="1" x="174.863" text-anchor="start" y="25" textLength="148.9409637451172">Start/Lap/Finish</tspan></text></g></g><g width="41" height="79.667" transform="scale(1,1) translate(391.167,87.833)"><g width="41" height="79.667" transform="scale(1,1) translate(0,0)" fill="url(#d763da83-f3e2-4a1b-8af0-a05db54b0a3b)" filter="url(#4333b48a-c5e7-48b0-8d51-bcb4841c856a)"><pattern id="d763da83-f3e2-4a1b-8af0-a05db54b0a3b" x="0" y="0" width="42" height="80.667" patternUnits="userSpaceOnUse" preserveAspectRatio="none meet" viewBox="0 0 42 80.667"><image xlink:href="https://cloud.smartdraw.com/CMSStorage/symbols/Hashes/svg/5E4E625592DB711743C95EE3DE3D386E.svg" x="0" y="0" width="263.3" height="511.5" transform="scale(0.156,0.156) translate(0,0)" preserveAspectRatio="none"/></pattern><rect width="41" height="79.667"/></g></g><g width="0" height="130.685" transform="scale(1,1) translate(525,276.324)"><g fill="#909090" stroke="#909090" stroke-opacity="1" transform="scale(1,1) translate(0,0)"><path fill="none" stroke-width="1.333" stroke-dasharray="none" d="M0,0 L0,0 M0,0 L0,0 M0,130.685 L0,130.685 M0,0 L0,0"/><g><g stroke-dasharray="none"><path d="M0,0L-10.666,0L-10.666,-10.666L0,-10.666z" stroke-width="0" fill="none"/></g></g></g></g><g width="76.333" height="119.833" transform="scale(1,1) translate(678.5,281.75)"><g width="76.333" height="119.833" transform="scale(1,1) translate(0,0)" fill="url(#644500b3-4df1-47c9-8da5-ba5de5c4fe60)" filter="url(#4333b48a-c5e7-48b0-8d51-bcb4841c856a)"><pattern id="644500b3-4df1-47c9-8da5-ba5de5c4fe60" x="0" y="0" width="77.333" height="120.833" patternUnits="userSpaceOnUse" preserveAspectRatio="none meet" viewBox="0 0 77.333 120.833"><image xlink:href="https://cloud.smartdraw.com/CMSStorage/symbols/Hashes/svg/4DDF9DFC07FA8282852C99D15A109093.svg" x="0" y="0" width="359" height="565.5" transform="scale(0.213,0.212) translate(0,0)" preserveAspectRatio="none"/></pattern><rect width="76.333" height="119.833"/></g></g><g width="230.571" height="130.685" transform="scale(1,1) translate(409.714,276.324)"><g width="230.571" height="130.685" transform="scale(1,1) translate(0,0)" fill="url(#e1c1ca23-817f-4705-87be-a1b39691b3d2)" filter="url(#4333b48a-c5e7-48b0-8d51-bcb4841c856a)"><pattern id="e1c1ca23-817f-4705-87be-a1b39691b3d2" x="0" y="0" width="231.571" height="131.685" patternUnits="userSpaceOnUse" preserveAspectRatio="none meet" viewBox="0 0 231.571 131.685"><image xlink:href="https://cloud.smartdraw.com/CMSStorage/symbols/Hashes/svg/07DC1F90147D56D8760E5469587E2E49.svg" x="0" y="0" width="510.2" height="297.9" transform="scale(0.452,0.439) translate(0,0)" preserveAspectRatio="none"/></pattern><rect width="230.571" height="130.685"/></g><g width="135.62967466193916" height="41.66666030883789" transform="scale(1,1) translate(46.499,58.717)"><text width="135.62967466193916" height="41.66666030883789" transform="scale(1,1) translate(0,0)" xml:space="preserve"><tspan xml:space="preserve" text-rendering="optimizeSpeed" style="font-family: Francois One, Helvetica Neue, Helvetica, sans-serif;" font-size="13.88888888888889" font-weight="normal" font-style="normal" fill="#333333" opacity="1" x="19.455" text-anchor="start" y="15.625" textLength="93.33332061767578">Internet / Zone4</tspan><tspan xml:space="preserve" text-rendering="optimizeSpeed" style="font-family: Francois One, Helvetica Neue, Helvetica, sans-serif;" font-size="13.88888888888889" font-weight="normal" font-style="normal" fill="#333333" opacity="1" x="46.235" text-anchor="start" y="36.458" textLength="43.15971374511719">servers</tspan></text></g></g><g width="114.33" height="126.681" transform="scale(1,1) translate(411.5,165.665)"><g transform="scale(1,1) translate(0,0)" fill="#909090" stroke="#909090" stroke-opacity="1"><path d="M114.33,126.681 L71.456,79.176 L48.476,85.549 L65.855,41.132 L42.874,47.505 L0,0" fill="none" stroke-width="1.333" stroke-dasharray="none"/><g><g stroke-dasharray="none"><path d="M112.997,125.348L115.663,125.348L115.663,128.014L112.997,128.014z" stroke-width="0" fill="none"/></g></g></g></g><g width="41" height="79.667" transform="scale(1,1) translate(632.833,87.833)"><g width="41" height="79.667" transform="scale(1,1) translate(0,0)" fill="url(#5886e826-83a2-40ea-8d7c-455a97421aa7)" filter="url(#4333b48a-c5e7-48b0-8d51-bcb4841c856a)"><pattern id="5886e826-83a2-40ea-8d7c-455a97421aa7" x="0" y="0" width="42" height="80.667" patternUnits="userSpaceOnUse" preserveAspectRatio="none meet" viewBox="0 0 42 80.667"><image xlink:href="https://cloud.smartdraw.com/CMSStorage/symbols/Hashes/svg/5E4E625592DB711743C95EE3DE3D386E.svg" x="0" y="0" width="263.3" height="511.5" transform="scale(0.156,0.156) translate(0,0)" preserveAspectRatio="none"/></pattern><rect width="41" height="79.667"/></g></g><g width="127.337" height="126.681" transform="scale(1,1) translate(525.83,165.665)"><g transform="scale(1,1) translate(0,0)" fill="#909090" stroke="#909090" stroke-opacity="1"><path d="M0,126.681 L47.751,79.176 L39.875,55.341 L87.462,71.34 L79.585,47.505 L127.337,0" fill="none" stroke-width="1.333" stroke-dasharray="none"/><g><g stroke-dasharray="none"><path d="M-1.333,125.348L1.333,125.348L1.333,128.014L-1.333,128.014z" stroke-width="0" fill="none"/></g></g></g></g><g width="800" height="225" transform="scale(1,1) translate(115.417,468.5)"><g stroke="#909090" opacity="1" stroke-width="1.3333333333333333" stroke-dasharray="none" width="800" height="225" transform="scale(1,1) translate(0,0)" fill="#FDF0C9" fill-opacity="1" stroke-opacity="1"><rect width="800" height="225"/></g><g width="798.6666666087978" height="223.66666650772092" transform="scale(1,1) translate(0.667,0.667)"><text width="798.6666666087978" height="33.33332824707031" transform="scale(1,1) translate(0,95.1666691303253)" xml:space="preserve"><tspan xml:space="preserve" text-rendering="optimizeSpeed" style="font-family: Francois One, Helvetica Neue, Helvetica, sans-serif;" font-size="22.22222222222222" font-weight="normal" font-style="normal" fill="#333333" opacity="1" x="675.472" text-anchor="start" y="25" textLength="123.19442749023438">Timing Office</tspan></text></g></g><g width="108" height="74.667" transform="scale(1,1) translate(319.75,481.167)"><g width="108" height="74.667" transform="scale(1,1) translate(0,0)" fill="url(#22a06269-731c-4bfc-8c3d-bbf90b1142aa)" filter="url(#4333b48a-c5e7-48b0-8d51-bcb4841c856a)"><pattern id="22a06269-731c-4bfc-8c3d-bbf90b1142aa" x="0" y="0" width="109" height="75.667" patternUnits="userSpaceOnUse" preserveAspectRatio="none meet" viewBox="0 0 109 75.667"><image xlink:href="https://cloud.smartdraw.com/CMSStorage/symbols/Hashes/svg/1517E74A7DE1E378F0C47003912B057D.svg" x="0" y="0" width="529.9" height="358.6" transform="scale(0.204,0.208) translate(0,0)" preserveAspectRatio="none"/></pattern><rect width="108" height="74.667"/></g></g><g width="108" height="74.667" transform="scale(1,1) translate(178.083,481.167)"><g width="108" height="74.667" transform="scale(1,1) translate(0,0)" fill="url(#04409fa8-1d48-4601-82d2-b4144831f358)" filter="url(#4333b48a-c5e7-48b0-8d51-bcb4841c856a)"><pattern id="04409fa8-1d48-4601-82d2-b4144831f358" x="0" y="0" width="109" height="75.667" patternUnits="userSpaceOnUse" preserveAspectRatio="none meet" viewBox="0 0 109 75.667"><image xlink:href="https://cloud.smartdraw.com/CMSStorage/symbols/Hashes/svg/1517E74A7DE1E378F0C47003912B057D.svg" x="0" y="0" width="529.9" height="358.6" transform="scale(0.204,0.208) translate(0,0)" preserveAspectRatio="none"/></pattern><rect width="108" height="74.667"/></g></g><g width="129.667" height="40" transform="scale(1,1) translate(417.25,615.167)"><g width="129.667" height="40" transform="scale(1,1) translate(0,0)" fill="url(#850551a0-0269-4efa-8ee0-6b8516f2ee09)" filter="url(#4333b48a-c5e7-48b0-8d51-bcb4841c856a)"><pattern id="850551a0-0269-4efa-8ee0-6b8516f2ee09" x="0" y="0" width="130.667" height="41" patternUnits="userSpaceOnUse" preserveAspectRatio="none meet" viewBox="0 0 130.667 41"><image xlink:href="https://cloud.smartdraw.com/CMSStorage/symbols/Hashes/svg/E0ED7FFEE38A3E40F81E4E90B0D6076C.svg" x="0" y="0" width="499.1" height="150.8" transform="scale(0.26,0.265) translate(0,0)" preserveAspectRatio="none"/></pattern><rect width="129.667" height="40"/></g></g><g width="47.5" height="81.501" transform="scale(1,1) translate(373.415,553.832)"><g transform="scale(1,1) translate(0,0)" fill="#909090" stroke="#909090" stroke-opacity="1"><path d="M0,0 L0,81.501 L47.5,81.501" fill="none" stroke-width="1.333" stroke-dasharray="none"/><g><g stroke-dasharray="none"><path d="M-1.333,-1.333L1.333,-1.333L1.333,1.333L-1.333,1.333z" stroke-width="0" fill="none"/></g></g></g></g><g width="185.501" height="91.668" transform="scale(1,1) translate(231.749,553.832)"><g transform="scale(1,1) translate(0,0)" fill="#909090" stroke="#909090" stroke-opacity="1"><path d="M0,0 L0,91.668 L185.501,91.668" fill="none" stroke-width="1.333" stroke-dasharray="none"/><g><g stroke-dasharray="none"><path d="M-1.333,-1.333L1.333,-1.333L1.333,1.333L-1.333,1.333z" stroke-width="0" fill="none"/></g></g></g></g><g width="44.084" height="214.906" transform="scale(1,1) translate(481.746,401.594)"><g transform="scale(1,1) translate(0,0)" fill="#909090" stroke="#909090" stroke-opacity="1"><path d="M0,214.906 L0,189.906 L44.084,189.906 L44.084,0" fill="none" stroke-width="1.333" stroke-dasharray="none"/><g><g stroke-dasharray="none"><path d="M-1.333,213.573L1.333,213.573L1.333,216.239L-1.333,216.239z" stroke-width="0" fill="none"/></g></g></g></g><g width="109" height="85.257" transform="scale(1,1) translate(603.833,532.371)"><g width="109" height="85.257" transform="scale(1,1) translate(0,0)" fill="url(#b5607c92-f64d-476f-8c26-3f81d2054db1)" filter="url(#4333b48a-c5e7-48b0-8d51-bcb4841c856a)"><pattern id="b5607c92-f64d-476f-8c26-3f81d2054db1" x="0" y="0" width="110" height="86.257" patternUnits="userSpaceOnUse" preserveAspectRatio="none meet" viewBox="0 0 110 86.257"><image xlink:href="https://cloud.smartdraw.com/CMSStorage/symbols/Hashes/svg/0CACF6C485294D0B0B412B45D238A091.svg" x="0" y="0" width="472.8" height="367.6" transform="scale(0.231,0.232) translate(0,0)" preserveAspectRatio="none"/></pattern><rect width="109" height="85.257"/></g></g><g width="94.84" height="29.259" transform="scale(1,1) translate(536.915,595.908)"><g transform="scale(1,1) translate(0,0)" fill="#909090" stroke="#909090" stroke-opacity="1"><path d="M94.84,0 L69.84,0 L69.84,29.259 L0,29.259" fill="none" stroke-width="1.333" stroke-dasharray="none"/><g><g stroke-dasharray="none"><path d="M93.507,-1.333L96.173,-1.333L96.173,1.333L93.507,1.333z" stroke-width="0" fill="none"/></g></g></g></g></g></svg>