<?xml version="1.0" standalone="no"?><!DOCTYPE svg PUBLIC "-//W3C//DTD SVG 1.1//EN" "http://www.w3.org/Graphics/SVG/1.1/DTD/svg11.dtd"><svg xmlns="http://www.w3.org/2000/svg" version="1.1" width="838.187" height="697.84" xmlns:xlink="http://www.w3.org/1999/xlink" xlink="http://www.w3.org/1999/xlink" style="position:relative;overflow:hidden;" viewBox="13.33 37.333 838.187 697.84"><defs><filter id="f24544ad-4381-4d26-87a0-48fed71eeece" x="-0.5" y="-0.5" width="2" height="2"><feMerge><feMergeNode in="SourceGraphic"/></feMerge></filter><style type="text/css">@import url(https://fonts.googleapis.com/css?family=Francois+One::latin);</style></defs><g><g width="500" height="179.167" transform="scale(1,1) translate(308.333,54.167)"><g stroke="#909090" opacity="1" stroke-width="1.3333333333333333" stroke-dasharray="none" width="500" height="179.167" transform="scale(1,1) translate(0,0)" fill="#FDF0C9" fill-opacity="1" stroke-opacity="1"><rect width="500" height="179.167"/></g><g width="498.66666666666663" height="177.83333333333331" transform="scale(1,1) translate(0.667,0.667)"><text width="498.66666666666663" height="33.33332824707031" transform="scale(1,1) translate(0,72.2500025431315)" xml:space="preserve"><tspan xml:space="preserve" text-rendering="optimizeSpeed" style="font-family: Francois One, Helvetica Neue, Helvetica, sans-serif;" font-size="22.22222222222222" font-weight="normal" font-style="normal" fill="#333333" opacity="1" x="174.863" text-anchor="start" y="25" textLength="148.9409637451172">Start/Lap/Finish</tspan></text></g></g><g width="800" height="225" transform="scale(1,1) translate(41.667,341.667)"><g stroke="#909090" opacity="1" stroke-width="1.3333333333333333" stroke-dasharray="none" width="800" height="225" transform="scale(1,1) translate(0,0)" fill="#FDF0C9" fill-opacity="1" stroke-opacity="1"><rect width="800" height="225"/></g><g width="798.6666666666666" height="223.66666666666666" transform="scale(1,1) translate(0.667,0.667)"><text width="798.6666666666666" height="33.33332824707031" transform="scale(1,1) translate(0,95.16666920979817)" xml:space="preserve"><tspan xml:space="preserve" text-rendering="optimizeSpeed" style="font-family: Francois One, Helvetica Neue, Helvetica, sans-serif;" font-size="22.22222222222222" font-weight="normal" font-style="normal" fill="#333333" opacity="1" x="675.472" text-anchor="start" y="25" textLength="123.19442749023438">Timing Office</tspan></text></g></g><g width="108" height="74.667" transform="scale(1,1) translate(246,354.333)"><g width="108" height="74.667" transform="scale(1,1) translate(0,0)" fill="url(#7ca44550-c192-47a2-808d-bc7e6960a59d)" filter="url(#f24544ad-4381-4d26-87a0-48fed71eeece)"><pattern id="7ca44550-c192-47a2-808d-bc7e6960a59d" x="0" y="0" width="109" height="75.667" patternUnits="userSpaceOnUse" preserveAspectRatio="none meet" viewBox="0 0 109 75.667"><image xlink:href="https://cloud.smartdraw.com/CMSStorage/symbols/Hashes/svg/1517E74A7DE1E378F0C47003912B057D.svg" x="0" y="0" width="529.9" height="358.6" transform="scale(0.204,0.208) translate(0,0)" preserveAspectRatio="none"/></pattern><rect width="108" height="74.667"/></g></g><g width="41" height="79.667" transform="scale(1,1) translate(346.167,93.5)"><g width="41" height="79.667" transform="scale(1,1) translate(0,0)" fill="url(#1b1efd7a-4c8d-44b8-8989-848c3f146c7b)" filter="url(#f24544ad-4381-4d26-87a0-48fed71eeece)"><pattern id="1b1efd7a-4c8d-44b8-8989-848c3f146c7b" x="0" y="0" width="42" height="80.667" patternUnits="userSpaceOnUse" preserveAspectRatio="none meet" viewBox="0 0 42 80.667"><image xlink:href="https://cloud.smartdraw.com/CMSStorage/symbols/Hashes/svg/5E4E625592DB711743C95EE3DE3D386E.svg" x="0" y="0" width="263.3" height="511.5" transform="scale(0.156,0.156) translate(0,0)" preserveAspectRatio="none"/></pattern><rect width="41" height="79.667"/></g></g><g width="0" height="130.667" transform="scale(1,1) translate(466.667,589.333)"><g fill="#909090" stroke="#909090" stroke-opacity="1" transform="scale(1,1) translate(0,0)"><path fill="none" stroke-width="1.333" stroke-dasharray="none" d="M0,0 L0,0 M0,0 L0,0 M0,130.667 L0,130.667 M0,0 L0,0"/><g><g stroke-dasharray="none"><path d="M0,0L-10.666,0L-10.666,-10.666L0,-10.666z" stroke-width="0" fill="none"/></g></g></g></g><g width="134.667" height="56.833" transform="scale(1,1) translate(557.667,471.667)"><g width="134.667" height="56.833" transform="scale(1,1) translate(0,0)" fill="url(#60be98d0-45b9-4429-85fc-eb2096801a7c)" filter="url(#f24544ad-4381-4d26-87a0-48fed71eeece)"><pattern id="60be98d0-45b9-4429-85fc-eb2096801a7c" x="0" y="0" width="135.667" height="57.833" patternUnits="userSpaceOnUse" preserveAspectRatio="none meet" viewBox="0 0 135.667 57.833"><image xlink:href="https://cloud.smartdraw.com/CMSStorage/symbols/Hashes/svg/A53C9DE7EEAB6A67FF3E1B3CB5FAE4EB.svg" x="0" y="0" width="424.3" height="170.5" transform="scale(0.317,0.333) translate(0,0)" preserveAspectRatio="none"/></pattern><rect width="134.667" height="56.833"/></g><g width="58.38541030883789" height="20.833330154418945" transform="scale(1,1) translate(38.141,56.833)"><text width="58.38541030883789" height="20.833330154418945" transform="scale(1,1) translate(0,0)" xml:space="preserve"><tspan xml:space="preserve" text-rendering="optimizeSpeed" style="font-family: Francois One, Helvetica Neue, Helvetica, sans-serif;" font-size="13.88888888888889" font-weight="normal" font-style="normal" fill="#333333" opacity="1" x="0" text-anchor="start" y="15.625" textLength="58.38541030883789">Serverbox</tspan></text></g></g><g width="108" height="74.667" transform="scale(1,1) translate(104.333,354.333)"><g width="108" height="74.667" transform="scale(1,1) translate(0,0)" fill="url(#450aae7d-a9d1-40f4-84e6-c8a4bfa0426d)" filter="url(#f24544ad-4381-4d26-87a0-48fed71eeece)"><pattern id="450aae7d-a9d1-40f4-84e6-c8a4bfa0426d" x="0" y="0" width="109" height="75.667" patternUnits="userSpaceOnUse" preserveAspectRatio="none meet" viewBox="0 0 109 75.667"><image xlink:href="https://cloud.smartdraw.com/CMSStorage/symbols/Hashes/svg/1517E74A7DE1E378F0C47003912B057D.svg" x="0" y="0" width="529.9" height="358.6" transform="scale(0.204,0.208) translate(0,0)" preserveAspectRatio="none"/></pattern><rect width="108" height="74.667"/></g></g><g width="100.333" height="67.333" transform="scale(1,1) translate(433.167,366.333)"><g width="100.333" height="67.333" transform="scale(1,1) translate(0,0)" fill="url(#8e6f3b48-cfcb-4147-82c6-0a380b56f08d)" filter="url(#f24544ad-4381-4d26-87a0-48fed71eeece)"><pattern id="8e6f3b48-cfcb-4147-82c6-0a380b56f08d" x="0" y="0" width="101.333" height="68.333" patternUnits="userSpaceOnUse" preserveAspectRatio="none meet" viewBox="0 0 101.333 68.333"><image xlink:href="https://cloud.smartdraw.com/CMSStorage/symbols/Hashes/svg/2CE0BE5D00323DE98849027D02F8F198.svg" x="0" y="0" width="436" height="285.4" transform="scale(0.23,0.236) translate(0,0)" preserveAspectRatio="none"/></pattern><rect width="100.333" height="67.333"/></g></g><g width="129.667" height="40" transform="scale(1,1) translate(343.5,488.333)"><g width="129.667" height="40" transform="scale(1,1) translate(0,0)" fill="url(#38ffd7e4-6107-4a90-8a52-46e7b377e037)" filter="url(#f24544ad-4381-4d26-87a0-48fed71eeece)"><pattern id="38ffd7e4-6107-4a90-8a52-46e7b377e037" x="0" y="0" width="130.667" height="41" patternUnits="userSpaceOnUse" preserveAspectRatio="none meet" viewBox="0 0 130.667 41"><image xlink:href="https://cloud.smartdraw.com/CMSStorage/symbols/Hashes/svg/E0ED7FFEE38A3E40F81E4E90B0D6076C.svg" x="0" y="0" width="499.1" height="150.8" transform="scale(0.26,0.265) translate(0,0)" preserveAspectRatio="none"/></pattern><rect width="129.667" height="40"/></g></g><g width="76.333" height="119.833" transform="scale(1,1) translate(595.167,606.833)"><g width="76.333" height="119.833" transform="scale(1,1) translate(0,0)" fill="url(#2a42e6f5-3910-45a8-8e30-f6dcd0f6459b)" filter="url(#f24544ad-4381-4d26-87a0-48fed71eeece)"><pattern id="2a42e6f5-3910-45a8-8e30-f6dcd0f6459b" x="0" y="0" width="77.333" height="120.833" patternUnits="userSpaceOnUse" preserveAspectRatio="none meet" viewBox="0 0 77.333 120.833"><image xlink:href="https://cloud.smartdraw.com/CMSStorage/symbols/Hashes/svg/4DDF9DFC07FA8282852C99D15A109093.svg" x="0" y="0" width="359" height="565.5" transform="scale(0.213,0.212) translate(0,0)" preserveAspectRatio="none"/></pattern><rect width="76.333" height="119.833"/></g></g><g width="230.667" height="130.667" transform="scale(1,1) translate(351.333,589.333)"><g width="230.667" height="130.667" transform="scale(1,1) translate(0,0)" fill="url(#4572209a-cd9a-408f-8fd8-aa10e70b71fd)" filter="url(#f24544ad-4381-4d26-87a0-48fed71eeece)"><pattern id="4572209a-cd9a-408f-8fd8-aa10e70b71fd" x="0" y="0" width="231.667" height="131.667" patternUnits="userSpaceOnUse" preserveAspectRatio="none meet" viewBox="0 0 231.667 131.667"><image xlink:href="https://cloud.smartdraw.com/CMSStorage/symbols/Hashes/svg/07DC1F90147D56D8760E5469587E2E49.svg" x="0" y="0" width="510.2" height="297.9" transform="scale(0.452,0.439) translate(0,0)" preserveAspectRatio="none"/></pattern><rect width="230.667" height="130.667"/></g><g width="135.68582222222213" height="41.66666030883789" transform="scale(1,1) translate(46.518,58.709)"><text width="135.68582222222213" height="41.66666030883789" transform="scale(1,1) translate(0,0)" xml:space="preserve"><tspan xml:space="preserve" text-rendering="optimizeSpeed" style="font-family: Francois One, Helvetica Neue, Helvetica, sans-serif;" font-size="13.88888888888889" font-weight="normal" font-style="normal" fill="#333333" opacity="1" x="19.484" text-anchor="start" y="15.625" textLength="93.33332061767578">Internet / Zone4</tspan><tspan xml:space="preserve" text-rendering="optimizeSpeed" style="font-family: Francois One, Helvetica Neue, Helvetica, sans-serif;" font-size="13.88888888888889" font-weight="normal" font-style="normal" fill="#333333" opacity="1" x="46.263" text-anchor="start" y="36.458" textLength="43.15971374511719">servers</tspan></text></g></g><g width="59.5" height="78" transform="scale(1,1) translate(408,527.333)"><g transform="scale(1,1) translate(0,0)" fill="#909090" stroke="#909090" stroke-opacity="1"><path d="M0,0 L0,25 L59.5,25 L59.5,78" fill="none" stroke-width="1.333" stroke-dasharray="none"/><g><g stroke-dasharray="none"><path d="M-1.333,-1.333L1.333,-1.333L1.333,1.333L-1.333,1.333z" stroke-width="0" fill="none"/></g></g></g></g><g width="96.333" height="5.167" transform="scale(1,1) translate(463.167,493.167)"><g transform="scale(1,1) translate(0,0)" fill="#909090" stroke="#909090" stroke-opacity="1"><path d="M0,5.167 L25,5.167 L25,0 L96.333,0" fill="none" stroke-width="1.333" stroke-dasharray="none"/><g><g stroke-dasharray="none"><path d="M-1.333,3.834L1.333,3.834L1.333,6.5L-1.333,6.5z" stroke-width="0" fill="none"/></g></g></g></g><g width="47.5" height="81.5" transform="scale(1,1) translate(299.667,427)"><g transform="scale(1,1) translate(0,0)" fill="#909090" stroke="#909090" stroke-opacity="1"><path d="M0,0 L0,81.5 L47.5,81.5" fill="none" stroke-width="1.333" stroke-dasharray="none"/><g><g stroke-dasharray="none"><path d="M-1.333,-1.333L1.333,-1.333L1.333,1.333L-1.333,1.333z" stroke-width="0" fill="none"/></g></g></g></g><g width="185.5" height="91.667" transform="scale(1,1) translate(158,427)"><g transform="scale(1,1) translate(0,0)" fill="#909090" stroke="#909090" stroke-opacity="1"><path d="M0,0 L0,91.667 L185.5,91.667" fill="none" stroke-width="1.333" stroke-dasharray="none"/><g><g stroke-dasharray="none"><path d="M-1.333,-1.333L1.333,-1.333L1.333,1.333L-1.333,1.333z" stroke-width="0" fill="none"/></g></g></g></g><g width="75.167" height="56.833" transform="scale(1,1) translate(408,432.833)"><g transform="scale(1,1) translate(0,0)" fill="#909090" stroke="#909090" stroke-opacity="1"><path d="M0,56.833 L0,31.833 L75.167,31.833 L75.167,0" fill="none" stroke-width="1.333" stroke-dasharray="none"/><g><g stroke-dasharray="none"><path d="M-1.333,55.5L1.333,55.5L1.333,58.166L-1.333,58.166z" stroke-width="0" fill="none"/></g></g></g></g><g width="116.666" height="227.501" transform="scale(1,1) translate(366.5,171.332)"><g transform="scale(1,1) translate(0,0)" fill="#909090" stroke="#909090" stroke-opacity="1"><path d="M0,0 L46.925,91.505 L74.875,91.22 L41.792,136.281 L69.741,135.996 L116.666,227.501" fill="none" stroke-width="1.333" stroke-dasharray="none"/><g><g stroke-dasharray="none"><path d="M-1.333,-1.333L1.333,-1.333L1.333,1.333L-1.333,1.333z" stroke-width="0" fill="none"/></g></g></g></g><g width="41" height="79.667" transform="scale(1,1) translate(662.833,98.833)"><g width="41" height="79.667" transform="scale(1,1) translate(0,0)" fill="url(#61d682d0-36f0-4905-88e7-d27f52c35636)" filter="url(#f24544ad-4381-4d26-87a0-48fed71eeece)"><pattern id="61d682d0-36f0-4905-88e7-d27f52c35636" x="0" y="0" width="42" height="80.667" patternUnits="userSpaceOnUse" preserveAspectRatio="none meet" viewBox="0 0 42 80.667"><image xlink:href="https://cloud.smartdraw.com/CMSStorage/symbols/Hashes/svg/5E4E625592DB711743C95EE3DE3D386E.svg" x="0" y="0" width="263.3" height="511.5" transform="scale(0.156,0.156) translate(0,0)" preserveAspectRatio="none"/></pattern><rect width="41" height="79.667"/></g></g><g width="167.335" height="192.833" transform="scale(1,1) translate(515.831,176.665)"><g transform="scale(1,1) translate(0,0)" fill="#909090" stroke="#909090" stroke-opacity="1"><path d="M0,192.833 L67.282,115.298 L56.593,89.472 L110.742,103.361 L100.053,77.535 L167.335,0" fill="none" stroke-width="1.333" stroke-dasharray="none"/><g><g stroke-dasharray="none"><path d="M-1.333,191.5L1.333,191.5L1.333,194.166L-1.333,194.166z" stroke-width="0" fill="none"/></g></g></g></g><g width="109" height="85.333" transform="scale(1,1) translate(28.833,457.333)"><g width="109" height="85.333" transform="scale(1,1) translate(0,0)" fill="url(#5283e122-1a96-441a-8546-63c4a940e1b5)" filter="url(#f24544ad-4381-4d26-87a0-48fed71eeece)"><pattern id="5283e122-1a96-441a-8546-63c4a940e1b5" x="0" y="0" width="110" height="86.333" patternUnits="userSpaceOnUse" preserveAspectRatio="none meet" viewBox="0 0 110 86.333"><image xlink:href="https://cloud.smartdraw.com/CMSStorage/symbols/Hashes/svg/0CACF6C485294D0B0B412B45D238A091.svg" x="0" y="0" width="472.8" height="367.6" transform="scale(0.231,0.232) translate(0,0)" preserveAspectRatio="none"/></pattern><rect width="109" height="85.333"/></g></g><g width="221.5" height="13.833" transform="scale(1,1) translate(127.167,527.333)"><g transform="scale(1,1) translate(0,0)" fill="#909090" stroke="#909090" stroke-opacity="1"><path d="M0,13.833 L0,25 L221.5,25 L221.5,0" fill="none" stroke-width="1.333" stroke-dasharray="none"/><g><g stroke-dasharray="none"><path d="M-1.333,12.5L1.333,12.5L1.333,15.166L-1.333,15.166z" stroke-width="0" fill="none"/></g></g></g></g><g width="68.667" height="80.333" transform="scale(1,1) translate(415.667,93.167)"><g width="68.667" height="80.333" transform="scale(1,1) translate(0,0)" fill="url(#17e0ff58-3361-4536-8482-859ac155a15b)" filter="url(#f24544ad-4381-4d26-87a0-48fed71eeece)"><pattern id="17e0ff58-3361-4536-8482-859ac155a15b" x="0" y="0" width="69.667" height="81.333" patternUnits="userSpaceOnUse" preserveAspectRatio="none meet" viewBox="0 0 69.667 81.333"><image xlink:href="https://cloud.smartdraw.com/CMSStorage/symbols/Hashes/svg/2AA14F2CE42EBEBD03402EA0EBB2A3E8.svg" x="0" y="0" width="367.3" height="436.7" transform="scale(0.187,0.184) translate(0,0)" preserveAspectRatio="none"/></pattern><rect width="68.667" height="80.333"/></g><g width="44.01041030883789" height="20.833330154418945" transform="scale(1,1) translate(12.328,80.333)"><text width="44.01041030883789" height="20.833330154418945" transform="scale(1,1) translate(0,0)" xml:space="preserve"><tspan xml:space="preserve" text-rendering="optimizeSpeed" style="font-family: Francois One, Helvetica Neue, Helvetica, sans-serif;" font-size="13.88888888888889" font-weight="normal" font-style="normal" fill="#333333" opacity="1" x="0" text-anchor="start" y="15.625" textLength="44.01041030883789">Summit</tspan></text></g></g><g width="179.498" height="301.499" transform="scale(1,1) translate(446.665,172.833)"><g transform="scale(1,1) translate(0,0)" fill="#FF0000" stroke="#FF0000" stroke-opacity="1"><path d="M0,0 L76.96,129.268 L104.836,127.22 L74.662,174.279 L102.538,172.231 L179.498,301.499" fill="none" stroke-width="1.333" stroke-dasharray="none"/><g><g stroke-dasharray="none"><path d="M-1.333,-1.333L1.333,-1.333L1.333,1.333L-1.333,1.333z" stroke-width="0" fill="none"/></g></g></g></g><g width="68.667" height="80.333" transform="scale(1,1) translate(724,98.5)"><g width="68.667" height="80.333" transform="scale(1,1) translate(0,0)" fill="url(#a374316a-7ba8-41d2-8b37-a80fe1720bbb)" filter="url(#f24544ad-4381-4d26-87a0-48fed71eeece)"><pattern id="a374316a-7ba8-41d2-8b37-a80fe1720bbb" x="0" y="0" width="69.667" height="81.333" patternUnits="userSpaceOnUse" preserveAspectRatio="none meet" viewBox="0 0 69.667 81.333"><image xlink:href="https://cloud.smartdraw.com/CMSStorage/symbols/Hashes/svg/2AA14F2CE42EBEBD03402EA0EBB2A3E8.svg" x="0" y="0" width="367.3" height="436.7" transform="scale(0.187,0.184) translate(0,0)" preserveAspectRatio="none"/></pattern><rect width="68.667" height="80.333"/></g><g width="44.01041030883789" height="20.833330154418945" transform="scale(1,1) translate(12.328,80.333)"><text width="44.01041030883789" height="20.833330154418945" transform="scale(1,1) translate(0,0)" xml:space="preserve"><tspan xml:space="preserve" text-rendering="optimizeSpeed" style="font-family: Francois One, Helvetica Neue, Helvetica, sans-serif;" font-size="13.88888888888889" font-weight="normal" font-style="normal" fill="#333333" opacity="1" x="0" text-anchor="start" y="15.625" textLength="44.01041030883789">Summit</tspan></text></g></g><g width="80.167" height="305.167" transform="scale(1,1) translate(648.832,174.498)"><g transform="scale(1,1) translate(0,0)" fill="#FF0000" stroke="#FF0000" stroke-opacity="1"><path d="M80.167,0 L46.436,128.404 L67.439,146.846 L12.728,158.321 L33.732,176.763 L0,305.167" fill="none" stroke-width="1.333" stroke-dasharray="none"/><g><g stroke-dasharray="none"><path d="M78.834,-1.333L81.5,-1.333L81.5,1.333L78.834,1.333z" stroke-width="0" fill="none"/></g></g></g></g></g></svg>